<mxfile host="Electron" modified="2024-07-28T13:05:30.032Z" agent="Mozilla/5.0 (Windows NT 10.0; Win64; x64) AppleWebKit/537.36 (KHTML, like Gecko) draw.io/24.6.4 Chrome/124.0.6367.207 Electron/30.0.6 Safari/537.36" etag="6AMpA-zqrJGTXohKTR4E" version="24.6.4" type="device">
  <diagram name="第 1 页" id="s8k18Gu-YwgIVwCcWICK">
    <mxGraphModel dx="1562" dy="909" grid="0" gridSize="10" guides="1" tooltips="1" connect="1" arrows="1" fold="1" page="1" pageScale="1" pageWidth="827" pageHeight="1169" math="0" shadow="0">
      <root>
        <mxCell id="0" />
        <mxCell id="1" parent="0" />
        <mxCell id="aO_xQG4fLNJBxeZxEgui-20" value="" style="group" vertex="1" connectable="0" parent="1">
          <mxGeometry x="145" y="236" width="520" height="373" as="geometry" />
        </mxCell>
        <mxCell id="aO_xQG4fLNJBxeZxEgui-19" value="&lt;font style=&quot;font-size: 20px;&quot; face=&quot;MesloLGS NF&quot;&gt;&lt;b&gt;&amp;nbsp; 读未提交 -- 脏读&lt;/b&gt;&lt;/font&gt;" style="rounded=0;whiteSpace=wrap;html=1;align=left;verticalAlign=top;fillColor=#dae8fc;strokeColor=#6c8ebf;" vertex="1" parent="aO_xQG4fLNJBxeZxEgui-20">
          <mxGeometry width="520" height="373" as="geometry" />
        </mxCell>
        <mxCell id="aO_xQG4fLNJBxeZxEgui-1" value="事务A" style="shape=umlLifeline;whiteSpace=wrap;html=1;container=1;dropTarget=0;collapsible=0;recursiveResize=0;outlineConnect=0;portConstraint=eastwest;newEdgeStyle={&quot;curved&quot;:0,&quot;rounded&quot;:0};points=[[0,0,0,0,5],[0,1,0,0,-5],[1,0,0,0,5],[1,1,0,0,-5]];perimeter=rectanglePerimeter;targetShapes=umlLifeline;participant=label;fillColor=#f8cecc;strokeColor=#b85450;" vertex="1" parent="aO_xQG4fLNJBxeZxEgui-20">
          <mxGeometry x="23" y="60" width="100" height="300" as="geometry" />
        </mxCell>
        <mxCell id="aO_xQG4fLNJBxeZxEgui-15" value="" style="html=1;points=[[0,0,0,0,5],[0,1,0,0,-5],[1,0,0,0,5],[1,1,0,0,-5]];perimeter=orthogonalPerimeter;outlineConnect=0;targetShapes=umlLifeline;portConstraint=eastwest;newEdgeStyle={&quot;curved&quot;:0,&quot;rounded&quot;:0};" vertex="1" parent="aO_xQG4fLNJBxeZxEgui-1">
          <mxGeometry x="45" y="182" width="10" height="80" as="geometry" />
        </mxCell>
        <mxCell id="aO_xQG4fLNJBxeZxEgui-2" value="数据库" style="shape=umlLifeline;perimeter=lifelinePerimeter;whiteSpace=wrap;html=1;container=1;dropTarget=0;collapsible=0;recursiveResize=0;outlineConnect=0;portConstraint=eastwest;newEdgeStyle={&quot;curved&quot;:0,&quot;rounded&quot;:0};" vertex="1" parent="aO_xQG4fLNJBxeZxEgui-20">
          <mxGeometry x="196" y="60" width="100" height="298" as="geometry" />
        </mxCell>
        <mxCell id="aO_xQG4fLNJBxeZxEgui-7" value="" style="html=1;points=[[0,0,0,0,5],[0,1,0,0,-5],[1,0,0,0,5],[1,1,0,0,-5]];perimeter=orthogonalPerimeter;outlineConnect=0;targetShapes=umlLifeline;portConstraint=eastwest;newEdgeStyle={&quot;curved&quot;:0,&quot;rounded&quot;:0};" vertex="1" parent="aO_xQG4fLNJBxeZxEgui-2">
          <mxGeometry x="45" y="90" width="10" height="168" as="geometry" />
        </mxCell>
        <mxCell id="aO_xQG4fLNJBxeZxEgui-3" value="事务B" style="shape=umlLifeline;perimeter=lifelinePerimeter;whiteSpace=wrap;html=1;container=1;dropTarget=0;collapsible=0;recursiveResize=0;outlineConnect=0;portConstraint=eastwest;newEdgeStyle={&quot;curved&quot;:0,&quot;rounded&quot;:0};" vertex="1" parent="aO_xQG4fLNJBxeZxEgui-20">
          <mxGeometry x="370" y="60" width="100" height="298" as="geometry" />
        </mxCell>
        <mxCell id="aO_xQG4fLNJBxeZxEgui-4" value="" style="html=1;points=[[0,0,0,0,5],[0,1,0,0,-5],[1,0,0,0,5],[1,1,0,0,-5]];perimeter=orthogonalPerimeter;outlineConnect=0;targetShapes=umlLifeline;portConstraint=eastwest;newEdgeStyle={&quot;curved&quot;:0,&quot;rounded&quot;:0};" vertex="1" parent="aO_xQG4fLNJBxeZxEgui-3">
          <mxGeometry x="45" y="83" width="10" height="174" as="geometry" />
        </mxCell>
        <mxCell id="aO_xQG4fLNJBxeZxEgui-16" style="edgeStyle=orthogonalEdgeStyle;rounded=0;orthogonalLoop=1;jettySize=auto;html=1;curved=0;" edge="1" parent="aO_xQG4fLNJBxeZxEgui-20" source="aO_xQG4fLNJBxeZxEgui-15" target="aO_xQG4fLNJBxeZxEgui-7">
          <mxGeometry relative="1" as="geometry">
            <Array as="points">
              <mxPoint x="195" y="282" />
              <mxPoint x="195" y="282" />
            </Array>
          </mxGeometry>
        </mxCell>
        <mxCell id="aO_xQG4fLNJBxeZxEgui-17" value="3. 读取到未提交的脏数据" style="edgeLabel;html=1;align=center;verticalAlign=middle;resizable=0;points=[];fontStyle=1;fontColor=#FF0000;" vertex="1" connectable="0" parent="aO_xQG4fLNJBxeZxEgui-16">
          <mxGeometry x="-0.1614" relative="1" as="geometry">
            <mxPoint as="offset" />
          </mxGeometry>
        </mxCell>
        <mxCell id="aO_xQG4fLNJBxeZxEgui-8" value="" style="edgeStyle=orthogonalEdgeStyle;rounded=0;orthogonalLoop=1;jettySize=auto;html=1;curved=0;exitX=0;exitY=0;exitDx=0;exitDy=5;exitPerimeter=0;" edge="1" parent="aO_xQG4fLNJBxeZxEgui-20" source="aO_xQG4fLNJBxeZxEgui-4" target="aO_xQG4fLNJBxeZxEgui-7">
          <mxGeometry relative="1" as="geometry">
            <Array as="points">
              <mxPoint x="415" y="156" />
            </Array>
          </mxGeometry>
        </mxCell>
        <mxCell id="aO_xQG4fLNJBxeZxEgui-9" value="1.开始事务" style="edgeLabel;html=1;align=center;verticalAlign=middle;resizable=0;points=[];" vertex="1" connectable="0" parent="aO_xQG4fLNJBxeZxEgui-8">
          <mxGeometry x="-0.04" y="-2" relative="1" as="geometry">
            <mxPoint x="-3" as="offset" />
          </mxGeometry>
        </mxCell>
        <mxCell id="aO_xQG4fLNJBxeZxEgui-12" style="edgeStyle=orthogonalEdgeStyle;rounded=0;orthogonalLoop=1;jettySize=auto;html=1;curved=0;entryX=1;entryY=1;entryDx=0;entryDy=-5;entryPerimeter=0;" edge="1" parent="aO_xQG4fLNJBxeZxEgui-20" source="aO_xQG4fLNJBxeZxEgui-4" target="aO_xQG4fLNJBxeZxEgui-7">
          <mxGeometry relative="1" as="geometry">
            <Array as="points">
              <mxPoint x="420" y="313" />
            </Array>
          </mxGeometry>
        </mxCell>
        <mxCell id="aO_xQG4fLNJBxeZxEgui-13" value="4.回滚事务" style="edgeLabel;html=1;align=center;verticalAlign=middle;resizable=0;points=[];fontColor=#FF3333;fontStyle=1" vertex="1" connectable="0" parent="aO_xQG4fLNJBxeZxEgui-12">
          <mxGeometry x="-0.1609" relative="1" as="geometry">
            <mxPoint x="-14" as="offset" />
          </mxGeometry>
        </mxCell>
        <mxCell id="aO_xQG4fLNJBxeZxEgui-10" style="edgeStyle=orthogonalEdgeStyle;rounded=0;orthogonalLoop=1;jettySize=auto;html=1;curved=0;" edge="1" parent="aO_xQG4fLNJBxeZxEgui-20" source="aO_xQG4fLNJBxeZxEgui-4" target="aO_xQG4fLNJBxeZxEgui-7">
          <mxGeometry relative="1" as="geometry">
            <mxPoint x="194.5" y="227" as="targetPoint" />
            <Array as="points">
              <mxPoint x="378" y="234" />
              <mxPoint x="378" y="234" />
            </Array>
          </mxGeometry>
        </mxCell>
        <mxCell id="aO_xQG4fLNJBxeZxEgui-11" value="2. 修改数据" style="edgeLabel;html=1;align=center;verticalAlign=middle;resizable=0;points=[];fontColor=#FF3333;fontStyle=1" vertex="1" connectable="0" parent="aO_xQG4fLNJBxeZxEgui-10">
          <mxGeometry x="0.0268" y="-2" relative="1" as="geometry">
            <mxPoint x="7" as="offset" />
          </mxGeometry>
        </mxCell>
        <mxCell id="aO_xQG4fLNJBxeZxEgui-21" value="" style="group;fillColor=#f8cecc;strokeColor=#b85450;" vertex="1" connectable="0" parent="1">
          <mxGeometry x="145" y="692" width="520" height="373" as="geometry" />
        </mxCell>
        <mxCell id="aO_xQG4fLNJBxeZxEgui-22" value="&lt;font style=&quot;font-size: 20px;&quot; face=&quot;MesloLGS NF&quot;&gt;&lt;b&gt;&amp;nbsp; 读已提交 -- 不可重复读&lt;/b&gt;&lt;/font&gt;" style="rounded=0;whiteSpace=wrap;html=1;align=left;verticalAlign=top;fillColor=#dae8fc;strokeColor=#6c8ebf;" vertex="1" parent="aO_xQG4fLNJBxeZxEgui-21">
          <mxGeometry width="520" height="373" as="geometry" />
        </mxCell>
        <mxCell id="aO_xQG4fLNJBxeZxEgui-23" value="事务A" style="shape=umlLifeline;whiteSpace=wrap;html=1;container=1;dropTarget=0;collapsible=0;recursiveResize=0;outlineConnect=0;portConstraint=eastwest;newEdgeStyle={&quot;curved&quot;:0,&quot;rounded&quot;:0};points=[[0,0,0,0,5],[0,1,0,0,-5],[1,0,0,0,5],[1,1,0,0,-5]];perimeter=rectanglePerimeter;targetShapes=umlLifeline;participant=label;fillColor=#f8cecc;strokeColor=#b85450;" vertex="1" parent="aO_xQG4fLNJBxeZxEgui-21">
          <mxGeometry x="23" y="60" width="100" height="300" as="geometry" />
        </mxCell>
        <mxCell id="aO_xQG4fLNJBxeZxEgui-39" value="" style="html=1;points=[[0,0,0,0,5],[0,1,0,0,-5],[1,0,0,0,5],[1,1,0,0,-5]];perimeter=orthogonalPerimeter;outlineConnect=0;targetShapes=umlLifeline;portConstraint=eastwest;newEdgeStyle={&quot;curved&quot;:0,&quot;rounded&quot;:0};" vertex="1" parent="aO_xQG4fLNJBxeZxEgui-23">
          <mxGeometry x="45" y="93" width="10" height="168" as="geometry" />
        </mxCell>
        <mxCell id="aO_xQG4fLNJBxeZxEgui-25" value="数据库" style="shape=umlLifeline;perimeter=lifelinePerimeter;whiteSpace=wrap;html=1;container=1;dropTarget=0;collapsible=0;recursiveResize=0;outlineConnect=0;portConstraint=eastwest;newEdgeStyle={&quot;curved&quot;:0,&quot;rounded&quot;:0};" vertex="1" parent="aO_xQG4fLNJBxeZxEgui-21">
          <mxGeometry x="196" y="60" width="100" height="298" as="geometry" />
        </mxCell>
        <mxCell id="aO_xQG4fLNJBxeZxEgui-26" value="" style="html=1;points=[[0,0,0,0,5],[0,1,0,0,-5],[1,0,0,0,5],[1,1,0,0,-5]];perimeter=orthogonalPerimeter;outlineConnect=0;targetShapes=umlLifeline;portConstraint=eastwest;newEdgeStyle={&quot;curved&quot;:0,&quot;rounded&quot;:0};" vertex="1" parent="aO_xQG4fLNJBxeZxEgui-25">
          <mxGeometry x="45" y="90" width="10" height="168" as="geometry" />
        </mxCell>
        <mxCell id="aO_xQG4fLNJBxeZxEgui-27" value="事务B" style="shape=umlLifeline;perimeter=lifelinePerimeter;whiteSpace=wrap;html=1;container=1;dropTarget=0;collapsible=0;recursiveResize=0;outlineConnect=0;portConstraint=eastwest;newEdgeStyle={&quot;curved&quot;:0,&quot;rounded&quot;:0};" vertex="1" parent="aO_xQG4fLNJBxeZxEgui-21">
          <mxGeometry x="370" y="60" width="100" height="298" as="geometry" />
        </mxCell>
        <mxCell id="aO_xQG4fLNJBxeZxEgui-28" value="" style="html=1;points=[[0,0,0,0,5],[0,1,0,0,-5],[1,0,0,0,5],[1,1,0,0,-5]];perimeter=orthogonalPerimeter;outlineConnect=0;targetShapes=umlLifeline;portConstraint=eastwest;newEdgeStyle={&quot;curved&quot;:0,&quot;rounded&quot;:0};" vertex="1" parent="aO_xQG4fLNJBxeZxEgui-27">
          <mxGeometry x="45" y="83" width="10" height="174" as="geometry" />
        </mxCell>
        <mxCell id="aO_xQG4fLNJBxeZxEgui-35" style="edgeStyle=orthogonalEdgeStyle;rounded=0;orthogonalLoop=1;jettySize=auto;html=1;curved=0;" edge="1" parent="aO_xQG4fLNJBxeZxEgui-21" source="aO_xQG4fLNJBxeZxEgui-28" target="aO_xQG4fLNJBxeZxEgui-26">
          <mxGeometry relative="1" as="geometry">
            <mxPoint x="194.5" y="227" as="targetPoint" />
            <Array as="points">
              <mxPoint x="378" y="234" />
              <mxPoint x="378" y="234" />
            </Array>
          </mxGeometry>
        </mxCell>
        <mxCell id="aO_xQG4fLNJBxeZxEgui-36" value="3. 修改数据并提交" style="edgeLabel;html=1;align=center;verticalAlign=middle;resizable=0;points=[];fontColor=#FF3333;fontStyle=1" vertex="1" connectable="0" parent="aO_xQG4fLNJBxeZxEgui-35">
          <mxGeometry x="0.0268" y="-2" relative="1" as="geometry">
            <mxPoint x="7" as="offset" />
          </mxGeometry>
        </mxCell>
        <mxCell id="aO_xQG4fLNJBxeZxEgui-41" style="edgeStyle=entityRelationEdgeStyle;rounded=0;orthogonalLoop=1;jettySize=auto;html=1;exitX=1;exitY=0;exitDx=0;exitDy=5;exitPerimeter=0;entryX=0;entryY=0;entryDx=0;entryDy=5;entryPerimeter=0;elbow=vertical;" edge="1" parent="aO_xQG4fLNJBxeZxEgui-21" source="aO_xQG4fLNJBxeZxEgui-39" target="aO_xQG4fLNJBxeZxEgui-26">
          <mxGeometry relative="1" as="geometry" />
        </mxCell>
        <mxCell id="aO_xQG4fLNJBxeZxEgui-43" value="1.开始事务" style="edgeLabel;html=1;align=center;verticalAlign=middle;resizable=0;points=[];" vertex="1" connectable="0" parent="aO_xQG4fLNJBxeZxEgui-41">
          <mxGeometry x="-0.2039" y="3" relative="1" as="geometry">
            <mxPoint as="offset" />
          </mxGeometry>
        </mxCell>
        <mxCell id="aO_xQG4fLNJBxeZxEgui-44" style="edgeStyle=orthogonalEdgeStyle;rounded=0;orthogonalLoop=1;jettySize=auto;html=1;curved=0;" edge="1" parent="aO_xQG4fLNJBxeZxEgui-21" source="aO_xQG4fLNJBxeZxEgui-39" target="aO_xQG4fLNJBxeZxEgui-26">
          <mxGeometry relative="1" as="geometry">
            <Array as="points">
              <mxPoint x="129" y="198" />
              <mxPoint x="129" y="198" />
            </Array>
          </mxGeometry>
        </mxCell>
        <mxCell id="aO_xQG4fLNJBxeZxEgui-45" value="2.第1次读取数据" style="edgeLabel;html=1;align=center;verticalAlign=middle;resizable=0;points=[];fontColor=#FF3333;fontStyle=1" vertex="1" connectable="0" parent="aO_xQG4fLNJBxeZxEgui-44">
          <mxGeometry x="-0.3031" y="3" relative="1" as="geometry">
            <mxPoint x="21" y="2" as="offset" />
          </mxGeometry>
        </mxCell>
        <mxCell id="aO_xQG4fLNJBxeZxEgui-46" style="edgeStyle=orthogonalEdgeStyle;rounded=0;orthogonalLoop=1;jettySize=auto;html=1;curved=0;" edge="1" parent="aO_xQG4fLNJBxeZxEgui-21" source="aO_xQG4fLNJBxeZxEgui-39" target="aO_xQG4fLNJBxeZxEgui-26">
          <mxGeometry relative="1" as="geometry">
            <Array as="points">
              <mxPoint x="126" y="282" />
              <mxPoint x="126" y="282" />
            </Array>
          </mxGeometry>
        </mxCell>
        <mxCell id="aO_xQG4fLNJBxeZxEgui-47" value="4. 第2次读取数据" style="edgeLabel;html=1;align=center;verticalAlign=middle;resizable=0;points=[];fontStyle=1;fontColor=#FF3333;" vertex="1" connectable="0" parent="aO_xQG4fLNJBxeZxEgui-46">
          <mxGeometry x="-0.3399" y="2" relative="1" as="geometry">
            <mxPoint x="28" y="2" as="offset" />
          </mxGeometry>
        </mxCell>
        <mxCell id="aO_xQG4fLNJBxeZxEgui-48" value="" style="group;fillColor=#f8cecc;strokeColor=#b85450;" vertex="1" connectable="0" parent="1">
          <mxGeometry x="145" y="1199" width="520" height="373" as="geometry" />
        </mxCell>
        <mxCell id="aO_xQG4fLNJBxeZxEgui-49" value="&lt;font style=&quot;font-size: 20px;&quot; face=&quot;MesloLGS NF&quot;&gt;&lt;b&gt;&amp;nbsp; 可重复读 -- 幻读&lt;/b&gt;&lt;/font&gt;" style="rounded=0;whiteSpace=wrap;html=1;align=left;verticalAlign=top;fillColor=#dae8fc;strokeColor=#6c8ebf;" vertex="1" parent="aO_xQG4fLNJBxeZxEgui-48">
          <mxGeometry width="520" height="373" as="geometry" />
        </mxCell>
        <mxCell id="aO_xQG4fLNJBxeZxEgui-50" value="事务A" style="shape=umlLifeline;whiteSpace=wrap;html=1;container=1;dropTarget=0;collapsible=0;recursiveResize=0;outlineConnect=0;portConstraint=eastwest;newEdgeStyle={&quot;curved&quot;:0,&quot;rounded&quot;:0};points=[[0,0,0,0,5],[0,1,0,0,-5],[1,0,0,0,5],[1,1,0,0,-5]];perimeter=rectanglePerimeter;targetShapes=umlLifeline;participant=label;fillColor=#f8cecc;strokeColor=#b85450;" vertex="1" parent="aO_xQG4fLNJBxeZxEgui-48">
          <mxGeometry x="23" y="60" width="100" height="300" as="geometry" />
        </mxCell>
        <mxCell id="aO_xQG4fLNJBxeZxEgui-51" value="" style="html=1;points=[[0,0,0,0,5],[0,1,0,0,-5],[1,0,0,0,5],[1,1,0,0,-5]];perimeter=orthogonalPerimeter;outlineConnect=0;targetShapes=umlLifeline;portConstraint=eastwest;newEdgeStyle={&quot;curved&quot;:0,&quot;rounded&quot;:0};" vertex="1" parent="aO_xQG4fLNJBxeZxEgui-50">
          <mxGeometry x="45" y="93" width="10" height="168" as="geometry" />
        </mxCell>
        <mxCell id="aO_xQG4fLNJBxeZxEgui-52" value="数据库" style="shape=umlLifeline;perimeter=lifelinePerimeter;whiteSpace=wrap;html=1;container=1;dropTarget=0;collapsible=0;recursiveResize=0;outlineConnect=0;portConstraint=eastwest;newEdgeStyle={&quot;curved&quot;:0,&quot;rounded&quot;:0};" vertex="1" parent="aO_xQG4fLNJBxeZxEgui-48">
          <mxGeometry x="196" y="60" width="100" height="298" as="geometry" />
        </mxCell>
        <mxCell id="aO_xQG4fLNJBxeZxEgui-53" value="" style="html=1;points=[[0,0,0,0,5],[0,1,0,0,-5],[1,0,0,0,5],[1,1,0,0,-5]];perimeter=orthogonalPerimeter;outlineConnect=0;targetShapes=umlLifeline;portConstraint=eastwest;newEdgeStyle={&quot;curved&quot;:0,&quot;rounded&quot;:0};" vertex="1" parent="aO_xQG4fLNJBxeZxEgui-52">
          <mxGeometry x="45" y="90" width="10" height="168" as="geometry" />
        </mxCell>
        <mxCell id="aO_xQG4fLNJBxeZxEgui-54" value="事务B" style="shape=umlLifeline;perimeter=lifelinePerimeter;whiteSpace=wrap;html=1;container=1;dropTarget=0;collapsible=0;recursiveResize=0;outlineConnect=0;portConstraint=eastwest;newEdgeStyle={&quot;curved&quot;:0,&quot;rounded&quot;:0};" vertex="1" parent="aO_xQG4fLNJBxeZxEgui-48">
          <mxGeometry x="370" y="60" width="100" height="298" as="geometry" />
        </mxCell>
        <mxCell id="aO_xQG4fLNJBxeZxEgui-55" value="" style="html=1;points=[[0,0,0,0,5],[0,1,0,0,-5],[1,0,0,0,5],[1,1,0,0,-5]];perimeter=orthogonalPerimeter;outlineConnect=0;targetShapes=umlLifeline;portConstraint=eastwest;newEdgeStyle={&quot;curved&quot;:0,&quot;rounded&quot;:0};" vertex="1" parent="aO_xQG4fLNJBxeZxEgui-54">
          <mxGeometry x="45" y="83" width="10" height="174" as="geometry" />
        </mxCell>
        <mxCell id="aO_xQG4fLNJBxeZxEgui-56" style="edgeStyle=orthogonalEdgeStyle;rounded=0;orthogonalLoop=1;jettySize=auto;html=1;curved=0;" edge="1" parent="aO_xQG4fLNJBxeZxEgui-48" source="aO_xQG4fLNJBxeZxEgui-55" target="aO_xQG4fLNJBxeZxEgui-53">
          <mxGeometry relative="1" as="geometry">
            <mxPoint x="194.5" y="227" as="targetPoint" />
            <Array as="points">
              <mxPoint x="378" y="234" />
              <mxPoint x="378" y="234" />
            </Array>
          </mxGeometry>
        </mxCell>
        <mxCell id="aO_xQG4fLNJBxeZxEgui-57" value="3. 插入数据并提交" style="edgeLabel;html=1;align=center;verticalAlign=middle;resizable=0;points=[];fontColor=#FF3333;fontStyle=1" vertex="1" connectable="0" parent="aO_xQG4fLNJBxeZxEgui-56">
          <mxGeometry x="0.0268" y="-2" relative="1" as="geometry">
            <mxPoint x="7" as="offset" />
          </mxGeometry>
        </mxCell>
        <mxCell id="aO_xQG4fLNJBxeZxEgui-58" style="edgeStyle=entityRelationEdgeStyle;rounded=0;orthogonalLoop=1;jettySize=auto;html=1;exitX=1;exitY=0;exitDx=0;exitDy=5;exitPerimeter=0;entryX=0;entryY=0;entryDx=0;entryDy=5;entryPerimeter=0;elbow=vertical;" edge="1" parent="aO_xQG4fLNJBxeZxEgui-48" source="aO_xQG4fLNJBxeZxEgui-51" target="aO_xQG4fLNJBxeZxEgui-53">
          <mxGeometry relative="1" as="geometry" />
        </mxCell>
        <mxCell id="aO_xQG4fLNJBxeZxEgui-59" value="1.开始事务" style="edgeLabel;html=1;align=center;verticalAlign=middle;resizable=0;points=[];" vertex="1" connectable="0" parent="aO_xQG4fLNJBxeZxEgui-58">
          <mxGeometry x="-0.2039" y="3" relative="1" as="geometry">
            <mxPoint as="offset" />
          </mxGeometry>
        </mxCell>
        <mxCell id="aO_xQG4fLNJBxeZxEgui-60" style="edgeStyle=orthogonalEdgeStyle;rounded=0;orthogonalLoop=1;jettySize=auto;html=1;curved=0;" edge="1" parent="aO_xQG4fLNJBxeZxEgui-48" source="aO_xQG4fLNJBxeZxEgui-51" target="aO_xQG4fLNJBxeZxEgui-53">
          <mxGeometry relative="1" as="geometry">
            <Array as="points">
              <mxPoint x="129" y="198" />
              <mxPoint x="129" y="198" />
            </Array>
          </mxGeometry>
        </mxCell>
        <mxCell id="aO_xQG4fLNJBxeZxEgui-61" value="2.第1次读取范围数据" style="edgeLabel;html=1;align=center;verticalAlign=middle;resizable=0;points=[];fontColor=#FF3333;fontStyle=1" vertex="1" connectable="0" parent="aO_xQG4fLNJBxeZxEgui-60">
          <mxGeometry x="-0.3031" y="3" relative="1" as="geometry">
            <mxPoint x="21" y="2" as="offset" />
          </mxGeometry>
        </mxCell>
        <mxCell id="aO_xQG4fLNJBxeZxEgui-62" style="edgeStyle=orthogonalEdgeStyle;rounded=0;orthogonalLoop=1;jettySize=auto;html=1;curved=0;" edge="1" parent="aO_xQG4fLNJBxeZxEgui-48" source="aO_xQG4fLNJBxeZxEgui-51" target="aO_xQG4fLNJBxeZxEgui-53">
          <mxGeometry relative="1" as="geometry">
            <Array as="points">
              <mxPoint x="126" y="282" />
              <mxPoint x="126" y="282" />
            </Array>
          </mxGeometry>
        </mxCell>
        <mxCell id="aO_xQG4fLNJBxeZxEgui-63" value="4. 第2次读取范围数据" style="edgeLabel;html=1;align=center;verticalAlign=middle;resizable=0;points=[];fontStyle=1;fontColor=#FF3333;" vertex="1" connectable="0" parent="aO_xQG4fLNJBxeZxEgui-62">
          <mxGeometry x="-0.3399" y="2" relative="1" as="geometry">
            <mxPoint x="28" y="2" as="offset" />
          </mxGeometry>
        </mxCell>
      </root>
    </mxGraphModel>
  </diagram>
</mxfile>
